# xmcd CD database file
#
# Track frame offsets:
#	150
#	14298
#	34671
#	51444
#	67992
#	84540
#	100263
#	117936
#	136359
#	152532
#	165255
#
# Disc length: 2448 seconds
#
# Revision: 0
# Processed by: cddbd v1.5.2PL0 Copyright (c) Steve Scherf et al.
# Submitted via: CDex 1.51
#
DISCID=82098e0b
DTITLE=Leisure Time - Pack Your Bags
DYEAR=2014
DGENRE=Country
TTITLE0=Rox in the Box
TTITLE1=Wide Open Space
TTITLE2=Pack Your bags
TTITLE3=You and Tequila
TTITLE4=Johnny Come Lately
TTITLE5=Lover Lover
TTITLE6=Truth In The Blues
TTITLE7=Goodbye Earl
TTITLE8=I´m A Train
TTITLE9=It Ain´t Me Babe
TTITLE10=Stuck Like Glue
EXTD=YEAR: 2014
EXTT0=
EXTT1=
EXTT2=
EXTT3=
EXTT4=
EXTT5=
EXTT6=
EXTT7=
EXTT8=
EXTT9=
EXTT10=
PLAYORDER=
